<svg width="430" height="150" xmlns="http://www.w3.org/2000/svg">
 <defs>
  <g id="svg_1"/>
  <clipPath id="clip1">
   <path id="svg_35" d="m-138.00191,-6.00008l841.89063,0l0,165l-841.89063,0l0,-165zm0,0"/>
  </clipPath>
  <clipPath id="clip2">
   <path id="svg_36" d="m0,164l841.89063,0l0,166l-841.89063,0l0,-166zm0,0"/>
  </clipPath>
  <clipPath id="clip3">
   <path id="svg_37" d="m0,329l841.89063,0l0,166l-841.89063,0l0,-166zm0,0"/>
  </clipPath>
 </defs>
 <g>
  <title>background</title>
  <rect fill="none" id="canvas_background" height="152" width="432" y="-1" x="-1"/>
 </g>
 <g>
  <title>Layer 1</title>
  <g id="surface1">
   <g stroke="null" id="svg_139" clip-rule="nonzero" clip-path="url(#clip1)">
    <path stroke="null" id="svg_140" fill-rule="nonzero" fill="rgb(100%,100%,100%)" d="m-0.00001,158.67961l435.88503,0l0,-164.67969l-435.88503,0l0,164.67969zm0,0"/>
   </g>
   <path id="svg_141" fill-rule="nonzero" fill="rgb(0%,23.136902%,37.646484%)" d="m29.49809,53.54289l-5.91797,0c-1.8125,4.68359 -2.84375,9.75781 -2.84375,15.08203c0,12.04297 5.10938,22.86719 13.24219,30.51563l0,-40.73438c0,-3.08594 -1.26563,-4.86328 -4.48047,-4.86328"/>
   <path id="svg_142" fill-rule="nonzero" fill="rgb(0%,23.136902%,37.646484%)" d="m68.04106,36.49211l-13.52344,7.96875l-4.48437,0l12.16797,-11.72266c2.82031,-2.74609 3.89453,-4.30469 6.51953,-4.30469c1.84765,0 3.60156,1.83594 3.60156,3.48438c0,1.82812 -0.875,2.5625 -4.28125,4.57422m36.53125,32.13281c0,-23.15234 -18.76953,-41.91797 -41.91797,-41.91797c-15.92578,0 -29.78125,8.88672 -36.875,21.96875l59.00391,0l0,23.39453l-5.0586,0c-0.49218,-11.60156 -1.46093,-18.52734 -15.77343,-18.52734l-20.53125,0l0,22.45703l8.07421,0c7.69141,0 8.66407,-2.15234 9.05079,-12.25781l5.0625,0l0,30.5l-5.0625,0c-0.38672,-11.22656 -1.35938,-13.37891 -9.05079,-13.37891l-8.07421,0l0,24.98047c0.0039,0 0.00781,0.00391 0.00781,0.00391l20.52344,0c14.3125,0 15.28125,-6.92578 15.77343,-20.3086l5.0586,0l0,18.64063c11.86718,-7.40235 19.78906,-20.53906 19.78906,-35.55469"/>
   <path id="svg_143" fill-rule="nonzero" fill="rgb(7.843018%,39.215088%,59.608459%)" d="m143.34184,106.20305l-32.27734,0l0,-77.91407l17.13672,0l0,68.00391l15.14062,0l0,9.91016zm0,0"/>
   <path id="svg_144" fill-rule="nonzero" fill="rgb(7.843018%,39.215088%,59.608459%)" d="m166.82622,94.08195l0,-38.53125c0,-1.03515 -0.22266,-1.8125 -0.66797,-2.33203c-0.44532,-0.51953 -1.11328,-0.77734 -2.00391,-0.77734c-0.74219,0 -1.375,0.25781 -1.89062,0.77734c-0.51954,0.51953 -0.78125,1.29688 -0.78125,2.33203l0,38.53125c0,1.03516 0.22265,1.82813 0.66796,2.38281c0.44532,0.55469 1.11329,0.83204 2.00391,0.83204c0.89063,0 1.55859,-0.27735 2.00391,-0.83204c0.44531,-0.55468 0.66797,-1.34765 0.66797,-2.38281m15.47265,0.21094c0,4.74609 -1.78125,8.16016 -5.34375,10.23828c-2.89453,1.70703 -7.08594,2.5625 -12.57812,2.5625c-5.56641,0 -9.86719,-0.92578 -12.91016,-2.78516c-3.63672,-2.22656 -5.45312,-5.75 -5.45312,-10.57421l0,-37.72657c0,-4.75 1.8164,-8.24218 5.45312,-10.46484c3.11719,-1.93359 7.41797,-2.89453 12.91016,-2.89453c5.04687,0 9.29687,1.08984 12.74609,3.28125c3.44922,2.1914 5.17578,5.36328 5.17578,9.51953l0,38.84375zm0,0"/>
   <path id="svg_145" fill-rule="nonzero" fill="rgb(7.843018%,39.215088%,59.608459%)" d="m205.89262,94.85539l0,-39.52734c0,-0.96094 -0.22265,-1.6836 -0.66797,-2.16797c-0.44531,-0.47657 -1.10937,-0.71875 -2.0039,-0.71875c-1.77735,0 -2.66797,0.96093 -2.66797,2.88672l0,39.41406c0,1.92578 0.89062,2.88672 2.66797,2.88672c0.89453,0 1.55859,-0.23828 2.0039,-0.71875c0.44532,-0.47657 0.66797,-1.16407 0.66797,-2.05469m15.47266,10.46094c0,4.37109 -0.46485,7.33984 -1.39063,8.89843c-0.92968,1.5625 -2.46875,2.85938 -4.61718,3.89844c-1.26563,0.58985 -2.87891,0.98047 -4.84375,1.16797c-1.96875,0.18359 -4.35938,0.28125 -7.17969,0.28125l-15.47266,0l0,-9.24219l12.57813,0c2.59765,0 4.26562,-0.73047 5.01172,-2.1914c0.29296,-0.58985 0.4414,-1.72266 0.4414,-3.39844c-0.96484,0.75 -2.24219,1.32812 -3.83594,1.74219c-1.60156,0.41406 -3.50781,0.62109 -5.73437,0.62109c-3.26563,0 -5.95313,-0.85547 -8.07031,-2.5625c-2.11328,-1.70703 -3.17188,-3.78125 -3.17188,-6.23047l0,-45.30469c0,-2.8164 0.8125,-5.11718 2.44922,-6.90234c2.14844,-2.29687 5.45313,-3.44531 9.90234,-3.44531c2.45313,0 4.41797,0.36719 5.90235,1.10937c1.25781,0.88672 2.15234,1.44532 2.67187,1.67188l2.00391,-2.33985l13.35547,0l0,62.22657zm0,0"/>
   <path id="svg_146" fill-rule="nonzero" fill="rgb(7.843018%,39.215088%,59.608459%)" d="m239.95512,28.28898l-6.45703,10.01953l-8.57031,0l3.33594,-10.01953l11.6914,0zm0.33203,77.91407l-15.47265,0l0,-63.11329l15.47265,0l0,63.11329zm0,0"/>
   <path id="svg_147" fill-rule="nonzero" fill="rgb(7.843018%,39.215088%,59.608459%)" d="m279.46293,93.7343c0,4.75 -1.8164,8.23828 -5.44921,10.46484c-3.11719,1.92969 -7.42188,2.89453 -12.91407,2.89453c-5.34375,0 -9.5,-0.85547 -12.46484,-2.5625c-3.63672,-2.07812 -5.45703,-5.49219 -5.45703,-10.23828l0,-13.46875l15.47265,0l0,13.26953c0,1.03125 0.22657,1.82031 0.6836,2.375c0.45312,0.55078 1.09765,0.82813 1.93359,0.82813c0.83594,0 1.46094,-0.27735 1.875,-0.82813c0.41797,-0.55469 0.62891,-1.34375 0.62891,-2.375l0,-4.86328c0,-4.27734 -1.03906,-7.03906 -3.11719,-8.29297c-2.82031,-1.48437 -5.45312,-2.89453 -7.90234,-4.23047c-3.63672,-2.0039 -6.08203,-3.80078 -7.34766,-5.39844c-1.26172,-1.59375 -1.89453,-3.8789 -1.89453,-6.84765l0,-8.45313c0,-4.75 1.74609,-8.24218 5.23437,-10.46484c3.04297,-1.93359 7.3086,-2.89453 12.80079,-2.89453c5.34375,0 9.46093,0.85156 12.35546,2.55469c3.48829,2.08203 5.23047,5.49609 5.23047,10.24609l0,12.46484l-15.25,0l0,-12.35547c0,-0.96875 -0.24609,-1.72265 -0.74609,-2.28125c-0.49609,-0.55859 -1.0625,-0.83593 -1.70313,-0.83593c-0.71093,0 -1.3125,0.26172 -1.8125,0.78125c-0.49609,0.51953 -0.74609,1.29687 -0.74609,2.33593l0,5.89454c0,2.60156 1.07422,4.60546 3.23047,6.01171l6.00781,3.23047c4.37891,2.30078 7.08594,3.96875 8.125,5.00782c2.15235,2.08203 3.22656,4.9375 3.22656,8.57031l0,9.46094zm0,0"/>
   <path id="svg_148" fill-rule="nonzero" fill="rgb(7.843018%,39.215088%,59.608459%)" d="m313.07622,106.20305l-9.79297,0c-6.67578,0 -10.77735,-0.90625 -12.29688,-2.72266c-1.52344,-1.8125 -2.28515,-5.97656 -2.28515,-12.49609l0,-38.42969l-6.89844,0l0,-9.46485l6.89844,0l0,-12.6875l15.47265,0l0,12.6875l8.34766,0l0,9.46485l-8.34766,0l0,38.39844c0,1.85937 0.62891,3.15625 1.89063,3.89453c0.89062,0.52343 2.26562,0.78125 4.12109,0.78125l2.89063,0l0,10.57422zm0,0"/>
   <path id="svg_149" fill-rule="nonzero" fill="rgb(7.843018%,39.215088%,59.608459%)" d="m331.77543,106.20305l-15.46875,0l0,-63.11329l15.46875,0l0,63.11329zm0,-66.5625l-15.46875,0l0,-11.2461l15.46875,0l0,11.2461zm0,0"/>
   <path id="svg_150" fill-rule="nonzero" fill="rgb(7.843018%,39.215088%,59.608459%)" d="m370.95512,94.29289c0,4.74609 -1.78125,8.16016 -5.33984,10.23828c-2.89453,1.70703 -7.08985,2.5625 -12.58203,2.5625c-5.5625,0 -9.86719,-0.92578 -12.91016,-2.78516c-3.63672,-2.22656 -5.45312,-5.75 -5.45312,-10.57421l0,-37.72657c0,-4.75 1.8164,-8.24218 5.45312,-10.46484c3.11719,-1.93359 7.42188,-2.89453 12.91016,-2.89453c5.34375,0 9.5,0.85156 12.46875,2.55469c3.63281,2.08203 5.45312,5.49609 5.45312,10.24609l0,15.57812l-15.47265,0l0,-15.46875c0,-1.03906 -0.22266,-1.8164 -0.66797,-2.33593c-0.44532,-0.51953 -1.10938,-0.78125 -2.00391,-0.78125c-0.73828,0 -1.37109,0.25781 -1.89062,0.77734c-0.51954,0.51953 -0.78125,1.29688 -0.78125,2.33203l0,38.53125c0,1.03516 0.22656,1.82813 0.67187,2.38281c0.44531,0.55469 1.10938,0.83204 2,0.83204c0.89453,0 1.55859,-0.27735 2.00391,-0.82813c0.44531,-0.55469 0.66797,-1.34375 0.66797,-2.37891l0,-15.15625l15.47265,0l0,15.35938zm0,0"/>
   <path id="svg_151" fill-rule="nonzero" fill="rgb(7.843018%,39.215088%,59.608459%)" d="m395.33012,94.40226l0,-16.25c-2.07812,0.52344 -3.48828,1.15235 -4.23047,1.89063c-0.74218,0.74609 -1.11328,1.71094 -1.11328,2.89453l0,11.46484c0,0.96875 0.23828,1.69141 0.72656,2.17188c0.48047,0.48047 1.16797,0.72266 2.0586,0.72266c0.73828,0 1.35156,-0.24219 1.83594,-0.72266c0.48046,-0.48047 0.72265,-1.20313 0.72265,-2.17188m15.47266,11.80079l-13.69141,0l0,-2.44922c-0.74219,1.41406 -1.875,2.32031 -3.39453,2.72656c-1.51953,0.40625 -3.69141,0.61328 -6.51172,0.61328c-4.60156,0 -7.86719,-0.82031 -9.79687,-2.44922c-1.92578,-1.63281 -2.89453,-4.12109 -2.89453,-7.45703l0,-12.6875c0,-5.04687 3.47265,-9.23828 10.41015,-12.57812c6.9375,-3.33985 10.40625,-5.67579 10.40625,-7.01563l0,-9.34766c0,-1.03906 -0.21875,-1.8164 -0.65234,-2.33593c-0.4375,-0.51953 -1.09375,-0.78125 -1.96485,-0.78125c-0.72656,0 -1.34375,0.26172 -1.85156,0.78125c-0.51172,0.51953 -0.76172,1.29687 -0.76172,2.33593l0,12.46485l-15.02734,0l0,-12.57422c0,-4.67578 1.89062,-8.09375 5.67578,-10.24609c3.04297,-1.70313 7.30859,-2.55469 12.80469,-2.55469c5.48828,0 9.60547,0.92578 12.35156,2.78125c3.26563,2.15234 4.89844,5.67578 4.89844,10.57812l0,50.19532zm0,0"/>
   <path id="svg_152" fill-rule="nonzero" fill="rgb(0%,0%,0%)" d="m23.12309,114.49601l0.23047,0c0.77734,0 1.65625,-0.14453 1.65625,-1.14453c0,-0.99609 -0.87891,-1.14453 -1.65625,-1.14453l-0.23047,0l0,2.28906zm5.24609,5.0625l-2.97265,0l-2.25,-3.53125l-0.02344,0l0,3.53125l-2.38672,0l0,-9.17578l3.56641,0c1.8125,0 3.1875,0.86719 3.1875,2.82422c0,1.26563 -0.70313,2.35938 -2.00781,2.58985l2.88671,3.76171zm0,0"/>
   <path id="svg_153" fill-rule="nonzero" fill="rgb(0%,0%,0%)" d="m34.24809,112.40226l0,1.53516l2.6875,0l0,2.01953l-2.6875,0l0,1.58203l2.83594,0l0,2.01953l-5.22266,0l0,-9.17578l5.22266,0l0,2.01953l-2.83594,0zm0,0"/>
   <path id="svg_154" fill-rule="nonzero" fill="rgb(0%,0%,0%)" d="m45.252,115.95695l2.22656,-5.57422l2.58984,0l-3.91797,9.17578l-1.84765,0l-3.85938,-9.17578l2.58985,0l2.21875,5.57422zm0,0"/>
   <path id="svg_155" fill-rule="nonzero" fill="rgb(0%,0%,0%)" d="m55.90043,119.55851l-2.38281,0l0,-9.17578l2.38281,0l0,9.17578zm0,0"/>
   <path id="svg_156" fill-rule="nonzero" fill="rgb(0%,0%,0%)" d="m65.34184,112.74601c-0.43359,-0.36718 -0.99219,-0.60937 -1.57812,-0.60937c-0.4375,0 -1.02344,0.25781 -1.02344,0.76562c0,0.53516 0.64453,0.73829 1.05859,0.875l0.60938,0.1836c1.27734,0.375 2.26562,1.01953 2.26562,2.50781c0,0.91406 -0.22265,1.84766 -0.94922,2.46875c-0.72265,0.60938 -1.67968,0.86328 -2.60547,0.86328c-1.15625,0 -2.28906,-0.39062 -3.22265,-1.04687l1.01953,-1.92188c0.59766,0.52344 1.30078,0.94922 2.11719,0.94922c0.55859,0 1.15625,-0.28125 1.15625,-0.92187c0,-0.67579 -0.9375,-0.90235 -1.44922,-1.05079c-1.4961,-0.42578 -2.48047,-0.8125 -2.48047,-2.58984c0,-1.86328 1.32422,-3.07812 3.16406,-3.07812c0.92578,0 2.05469,0.28906 2.8711,0.7539l-0.95313,1.85156zm0,0"/>
   <path id="svg_157" fill-rule="nonzero" fill="rgb(0%,0%,0%)" d="m74.30278,119.55851l-2.38281,0l0,-7.15625l-1.97266,0l0,-2.01953l6.32812,0l0,2.01953l-1.97265,0l0,7.15625zm0,0"/>
   <path id="svg_158" fill-rule="nonzero" fill="rgb(0%,0%,0%)" d="m83.26372,113.21867l-0.02735,0l-0.98437,2.92188l1.98437,0l-0.97265,-2.92188zm-1.66797,4.74609l-0.63282,1.59375l-2.53125,0l3.52735,-9.17578l2.60547,0l3.45703,9.17578l-2.54297,0l-0.59766,-1.59375l-3.28515,0zm0,0"/>
   <path id="svg_159" fill-rule="nonzero" fill="rgb(0%,0%,0%)" d="m96.65043,112.74601c-0.4375,-0.36718 -0.99609,-0.60937 -1.58203,-0.60937c-0.4375,0 -1.01953,0.25781 -1.01953,0.76562c0,0.53516 0.64453,0.73829 1.05469,0.875l0.60937,0.1836c1.27735,0.375 2.26172,1.01953 2.26172,2.50781c0,0.91406 -0.21484,1.84766 -0.94531,2.46875c-0.71875,0.60938 -1.67969,0.86328 -2.60547,0.86328c-1.15625,0 -2.28906,-0.39062 -3.22656,-1.04687l1.02344,-1.92188c0.59765,0.52344 1.30468,0.94922 2.11718,0.94922c0.5625,0 1.16016,-0.28125 1.16016,-0.92187c0,-0.67579 -0.94141,-0.90235 -1.44922,-1.05079c-1.5,-0.42578 -2.48437,-0.8125 -2.48437,-2.58984c0,-1.86328 1.32812,-3.07812 3.16015,-3.07812c0.92969,0 2.0586,0.28906 2.875,0.7539l-0.94922,1.85156zm0,0"/>
   <path id="svg_160" fill-rule="nonzero" fill="rgb(0%,0%,0%)" d="m115.61528,109.82414l-0.98438,-0.71875l1.71485,-2.09375l1.34765,0.97656l-2.07812,1.83594zm0.36328,2.57812l0,1.53516l2.69141,0l0,2.01953l-2.69141,0l0,1.58203l2.83594,0l0,2.01953l-5.21875,0l0,-9.17578l5.21875,0l0,2.01953l-2.83594,0zm0,0"/>
   <path id="svg_161" fill-rule="nonzero" fill="rgb(0%,0%,0%)" d="m123.13872,110.38273l2.38671,0l4.36719,5.60938l0.02344,0l0,-5.60938l2.38281,0l0,9.17578l-2.38281,0l-4.37109,-5.62109l-0.01954,0l0,5.62109l-2.38671,0l0,-9.17578zm0,0"/>
   <path id="svg_162" fill-rule="nonzero" fill="rgb(0%,0%,0%)" d="m139.09575,112.40226l0,1.53516l2.61328,0l0,2.01953l-2.61328,0l0,3.60156l-2.38672,0l0,-9.17578l5.26953,0l0,2.01953l-2.88281,0zm0,0"/>
   <path id="svg_163" fill-rule="nonzero" fill="rgb(0%,0%,0%)" d="m149.49028,113.21867l-0.02735,0l-0.98437,2.92188l1.98437,0l-0.97265,-2.92188zm-1.67188,4.74609l-0.6289,1.59375l-2.53125,0l3.52734,-9.17578l2.60547,0l3.45703,9.17578l-2.54297,0l-0.59765,-1.59375l-3.28907,0zm0,0"/>
   <path id="svg_164" fill-rule="nonzero" fill="rgb(0%,0%,0%)" d="m162.877,112.74601c-0.4375,-0.36718 -0.9961,-0.60937 -1.58203,-0.60937c-0.4375,0 -1.02344,0.25781 -1.02344,0.76562c0,0.53516 0.64844,0.73829 1.05859,0.875l0.60938,0.1836c1.27734,0.375 2.26172,1.01953 2.26172,2.50781c0,0.91406 -0.21485,1.84766 -0.94532,2.46875c-0.71875,0.60938 -1.68359,0.86328 -2.60547,0.86328c-1.15625,0 -2.28906,-0.39062 -3.22265,-1.04687l1.01953,-1.92188c0.59375,0.52344 1.30078,0.94922 2.11719,0.94922c0.55859,0 1.16015,-0.28125 1.16015,-0.92187c0,-0.67579 -0.9414,-0.90235 -1.45312,-1.05079c-1.4961,-0.42578 -2.48047,-0.8125 -2.48047,-2.58984c0,-1.86328 1.32812,-3.07812 3.16406,-3.07812c0.92578,0 2.05469,0.28906 2.8711,0.7539l-0.94922,1.85156zm0,0"/>
   <path id="svg_165" fill-rule="nonzero" fill="rgb(0%,0%,0%)" d="m170.5684,119.55851l-2.38281,0l0,-9.17578l2.38281,0l0,9.17578zm0,0"/>
   <path id="svg_166" fill-rule="nonzero" fill="rgb(0%,0%,0%)" d="m180.01372,112.74601c-0.4375,-0.36718 -0.9961,-0.60937 -1.57813,-0.60937c-0.44141,0 -1.02344,0.25781 -1.02344,0.76562c0,0.53516 0.64453,0.73829 1.0586,0.875l0.60547,0.1836c1.27734,0.375 2.26562,1.01953 2.26562,2.50781c0,0.91406 -0.21875,1.84766 -0.94922,2.46875c-0.71875,0.60938 -1.67969,0.86328 -2.60547,0.86328c-1.15625,0 -2.28906,-0.39062 -3.22265,-1.04687l1.01953,-1.92188c0.59765,0.52344 1.30469,0.94922 2.11719,0.94922c0.5625,0 1.16015,-0.28125 1.16015,-0.92187c0,-0.67579 -0.9375,-0.90235 -1.44922,-1.05079c-1.5,-0.42578 -2.48437,-0.8125 -2.48437,-2.58984c0,-1.86328 1.32812,-3.07812 3.16406,-3.07812c0.92578,0 2.05859,0.28906 2.87109,0.7539l-0.94921,1.85156zm0,0"/>
  </g>
 </g>
</svg>